<svg xmlns="http://www.w3.org/2000/svg" viewBox="0 0 800 450" fill="none">
  <defs><linearGradient id="bg" x1="32" y1="12" x2="738" y2="430" gradientUnits="userSpaceOnUse"><stop stop-color="#701a75"/><stop offset="1" stop-color="#18181b"/></linearGradient><linearGradient id="a" x1="302" y1="135" x2="527" y2="344" gradientUnits="userSpaceOnUse"><stop stop-color="#f0abfc"/><stop offset="1" stop-color="#d946ef"/></linearGradient></defs>
  <path fill="url(#bg)" d="M0 0h800v450H0z"/><circle cx="641" cy="91" r="126" fill="#e879f9" opacity=".12"/><path d="M0 368h800" stroke="#fff" stroke-opacity=".12"/>
  <ellipse cx="409" cy="366" rx="164" ry="16" fill="#020617" opacity=".45"/><path d="M298 305h210m-190-10v67m174-54v54m-160 0h185" stroke="#e879f9" stroke-width="13" stroke-linecap="round" stroke-linejoin="round"/><path d="M335 225h105" stroke="#f0abfc" stroke-width="23" stroke-linecap="round"/>
  <circle cx="380" cy="138" r="23" fill="#e7b78f"/><path d="m362 165 72 2 14 59-99 0 13-61Z" fill="url(#a)"/><path d="m365 184-46 28-20-12m130-15 37 28 4 27" stroke="#e7b78f" stroke-width="15" stroke-linecap="round" stroke-linejoin="round"/><path d="M349 221h83m-69 11v64m70-64v65" stroke="#e4e4e7" stroke-width="19" stroke-linecap="round"/><path d="m366 292 61-1 50-32" stroke="#e4e4e7" stroke-width="21" stroke-linecap="round" stroke-linejoin="round"/><path d="m462 257 18-15m-1 15v-18" stroke="#e879f9" stroke-width="10" stroke-linecap="round"/>
  <text x="40" y="55" fill="#fae8ff" font-family="Arial,sans-serif" font-size="15" font-weight="700" letter-spacing="4">LOWER BODY · QUADRICEPS</text>
</svg>
